<?xml version="1.0" encoding="UTF-8" standalone="no"?>
<!DOCTYPE svg PUBLIC "-//W3C//DTD SVG 1.1//EN"
 "http://www.w3.org/Graphics/SVG/1.1/DTD/svg11.dtd">
<!-- Generated by graphviz version 14.1.3 (20260303.0454)
 -->
<!-- Title: HCIOS Pages: 1 -->
<svg width="1493pt" height="1723pt"
 viewBox="0.00 0.00 1493.00 1723.00" xmlns="http://www.w3.org/2000/svg" xmlns:xlink="http://www.w3.org/1999/xlink">
<g id="graph0" class="graph" transform="scale(1 1) rotate(0) translate(4 1718.75)">
<title>HCIOS</title>
<polygon fill="white" stroke="none" points="-4,4 -4,-1718.75 1489.25,-1718.75 1489.25,4 -4,4"/>
<g id="clust2" class="cluster">
<title>cluster_gov</title>
<path fill="#0f766e" stroke="#0f766e" d="M327.38,-1614C327.38,-1614 757.38,-1614 757.38,-1614 763.38,-1614 769.38,-1620 769.38,-1626 769.38,-1626 769.38,-1694.75 769.38,-1694.75 769.38,-1700.75 763.38,-1706.75 757.38,-1706.75 757.38,-1706.75 327.38,-1706.75 327.38,-1706.75 321.38,-1706.75 315.38,-1700.75 315.38,-1694.75 315.38,-1694.75 315.38,-1626 315.38,-1626 315.38,-1620 321.38,-1614 327.38,-1614"/>
<text xml:space="preserve" text-anchor="middle" x="542.38" y="-1688.5" font-family="DejaVu Sans Bold" font-size="15.00" fill="white">GOVERNANCE, RESILIENCE &amp; EMERGENCY CONTROL</text>
</g>
<!-- T1 -->
<g id="node1" class="node">
<title>T1</title>
<path fill="#ffffff" stroke="#0b2545" stroke-width="1.6" d="M1268.5,-1667.88C1268.5,-1667.88 1112.25,-1667.88 1112.25,-1667.88 1106.25,-1667.88 1100.25,-1661.88 1100.25,-1655.88 1100.25,-1655.88 1100.25,-1638.88 1100.25,-1638.88 1100.25,-1632.88 1106.25,-1626.88 1112.25,-1626.88 1112.25,-1626.88 1268.5,-1626.88 1268.5,-1626.88 1274.5,-1626.88 1280.5,-1632.88 1280.5,-1638.88 1280.5,-1638.88 1280.5,-1655.88 1280.5,-1655.88 1280.5,-1661.88 1274.5,-1667.88 1268.5,-1667.88"/>
<text xml:space="preserve" text-anchor="middle" x="1190.38" y="-1651.53" font-family="DejaVu Sans" font-size="13.00">IT Telemetry</text>
<text xml:space="preserve" text-anchor="middle" x="1190.38" y="-1635.03" font-family="DejaVu Sans" font-size="13.00">Web / Windows / Netflow</text>
</g>
<!-- A1 -->
<g id="node5" class="node">
<title>A1</title>
<path fill="#f2f4f7" stroke="#0f766e" stroke-width="1.6" d="M1303.38,-1564.5C1303.38,-1564.5 1089.38,-1564.5 1089.38,-1564.5 1083.38,-1564.5 1077.38,-1558.5 1077.38,-1552.5 1077.38,-1552.5 1077.38,-1535.5 1077.38,-1535.5 1077.38,-1529.5 1083.38,-1523.5 1089.38,-1523.5 1089.38,-1523.5 1303.38,-1523.5 1303.38,-1523.5 1309.38,-1523.5 1315.38,-1529.5 1315.38,-1535.5 1315.38,-1535.5 1315.38,-1552.5 1315.38,-1552.5 1315.38,-1558.5 1309.38,-1564.5 1303.38,-1564.5"/>
<text xml:space="preserve" text-anchor="middle" x="1196.38" y="-1548.15" font-family="DejaVu Sans" font-size="13.00" fill="#0b2545">A1 · Ingestion &amp; Trust Gate</text>
<text xml:space="preserve" text-anchor="middle" x="1196.38" y="-1531.65" font-family="DejaVu Sans" font-size="13.00" fill="#0b2545">SD&#45;0 Sanitizer + SD&#45;1 Trust Score</text>
</g>
<!-- T1&#45;&gt;A1 -->
<g id="edge1" class="edge">
<title>T1&#45;&gt;A1</title>
<path fill="none" stroke="#0f766e" stroke-width="1.3" d="M1191.56,-1626.35C1192.43,-1611.63 1193.63,-1591.39 1194.61,-1574.78"/>
<polygon fill="#0f766e" stroke="#0f766e" stroke-width="1.3" points="1197.4,-1575.1 1195.08,-1566.95 1191.81,-1574.77 1197.4,-1575.1"/>
</g>
<!-- T2 -->
<g id="node2" class="node">
<title>T2</title>
<path fill="#ffffff" stroke="#0b2545" stroke-width="1.6" d="M1473.25,-1667.88C1473.25,-1667.88 1321.5,-1667.88 1321.5,-1667.88 1315.5,-1667.88 1309.5,-1661.88 1309.5,-1655.88 1309.5,-1655.88 1309.5,-1638.88 1309.5,-1638.88 1309.5,-1632.88 1315.5,-1626.88 1321.5,-1626.88 1321.5,-1626.88 1473.25,-1626.88 1473.25,-1626.88 1479.25,-1626.88 1485.25,-1632.88 1485.25,-1638.88 1485.25,-1638.88 1485.25,-1655.88 1485.25,-1655.88 1485.25,-1661.88 1479.25,-1667.88 1473.25,-1667.88"/>
<text xml:space="preserve" text-anchor="middle" x="1397.38" y="-1651.53" font-family="DejaVu Sans" font-size="13.00">OT / SCADA Telemetry</text>
<text xml:space="preserve" text-anchor="middle" x="1397.38" y="-1635.03" font-family="DejaVu Sans" font-size="13.00">IEC&#45;60870 Protocol Logs</text>
</g>
<!-- T2&#45;&gt;A1 -->
<g id="edge2" class="edge">
<title>T2&#45;&gt;A1</title>
<path fill="none" stroke="#0f766e" stroke-width="1.3" d="M1357.18,-1626.1C1324.86,-1609.8 1279.34,-1586.85 1244.98,-1569.51"/>
<polygon fill="#0f766e" stroke="#0f766e" stroke-width="1.3" points="1246.66,-1567.22 1238.25,-1566.12 1244.14,-1572.22 1246.66,-1567.22"/>
</g>
<!-- T3 -->
<g id="node3" class="node">
<title>T3</title>
<path fill="#ffffff" stroke="#0b2545" stroke-width="1.6" d="M148.75,-1667.88C148.75,-1667.88 12,-1667.88 12,-1667.88 6,-1667.88 0,-1661.88 0,-1655.88 0,-1655.88 0,-1638.88 0,-1638.88 0,-1632.88 6,-1626.88 12,-1626.88 12,-1626.88 148.75,-1626.88 148.75,-1626.88 154.75,-1626.88 160.75,-1632.88 160.75,-1638.88 160.75,-1638.88 160.75,-1655.88 160.75,-1655.88 160.75,-1661.88 154.75,-1667.88 148.75,-1667.88"/>
<text xml:space="preserve" text-anchor="middle" x="80.38" y="-1651.53" font-family="DejaVu Sans" font-size="13.00">Threat Intel Feeds</text>
<text xml:space="preserve" text-anchor="middle" x="80.38" y="-1635.03" font-family="DejaVu Sans" font-size="13.00">MITRE / NVD / CERT&#45;In</text>
</g>
<!-- A6 -->
<g id="node13" class="node">
<title>A6</title>
<path fill="#f2f4f7" stroke="#0f766e" stroke-width="1.6" d="M516.75,-861.88C516.75,-861.88 350,-861.88 350,-861.88 344,-861.88 338,-855.88 338,-849.88 338,-849.88 338,-832.88 338,-832.88 338,-826.88 344,-820.88 350,-820.88 350,-820.88 516.75,-820.88 516.75,-820.88 522.75,-820.88 528.75,-826.88 528.75,-832.88 528.75,-832.88 528.75,-849.88 528.75,-849.88 528.75,-855.88 522.75,-861.88 516.75,-861.88"/>
<text xml:space="preserve" text-anchor="middle" x="433.38" y="-845.52" font-family="DejaVu Sans" font-size="13.00" fill="#0b2545">A6 · Attribution &amp; RAG</text>
<text xml:space="preserve" text-anchor="middle" x="433.38" y="-829.02" font-family="DejaVu Sans" font-size="13.00" fill="#0b2545">FAISS RAG + Llama 3.1 8B</text>
</g>
<!-- T3&#45;&gt;A6 -->
<g id="edge3" class="edge">
<title>T3&#45;&gt;A6</title>
<path fill="none" stroke="#0f766e" stroke-width="1.3" stroke-dasharray="5,2" d="M80.38,-1626.35C80.38,-1596.8 80.38,-1545 80.38,-1545 80.38,-1545 80.38,-1545 80.38,-957.91 80.38,-957.91 258.92,-899.47 362.05,-865.72"/>
<polygon fill="#0f766e" stroke="#0f766e" stroke-width="1.3" points="362.88,-868.39 369.61,-863.24 361.14,-863.07 362.88,-868.39"/>
<text xml:space="preserve" text-anchor="middle" x="114.88" y="-1292.3" font-family="DejaVu Sans" font-size="11.00">RAG context</text>
</g>
<!-- T4 -->
<g id="node4" class="node">
<title>T4</title>
<path fill="#ffffff" stroke="#0b2545" stroke-width="1.6" d="M1053.75,-1667.88C1053.75,-1667.88 869,-1667.88 869,-1667.88 863,-1667.88 857,-1661.88 857,-1655.88 857,-1655.88 857,-1638.88 857,-1638.88 857,-1632.88 863,-1626.88 869,-1626.88 869,-1626.88 1053.75,-1626.88 1053.75,-1626.88 1059.75,-1626.88 1065.75,-1632.88 1065.75,-1638.88 1065.75,-1638.88 1065.75,-1655.88 1065.75,-1655.88 1065.75,-1661.88 1059.75,-1667.88 1053.75,-1667.88"/>
<text xml:space="preserve" text-anchor="middle" x="961.38" y="-1651.53" font-family="DejaVu Sans" font-size="13.00">Asset Inventory</text>
<text xml:space="preserve" text-anchor="middle" x="961.38" y="-1635.03" font-family="DejaVu Sans" font-size="13.00">Criticality + Safety Metadata</text>
</g>
<!-- A2 -->
<g id="node6" class="node">
<title>A2</title>
<path fill="#f2f4f7" stroke="#0f766e" stroke-width="1.6" d="M1181.38,-1466C1181.38,-1466 1003.38,-1466 1003.38,-1466 997.38,-1466 991.38,-1460 991.38,-1454 991.38,-1454 991.38,-1437 991.38,-1437 991.38,-1431 997.38,-1425 1003.38,-1425 1003.38,-1425 1181.38,-1425 1181.38,-1425 1187.38,-1425 1193.38,-1431 1193.38,-1437 1193.38,-1437 1193.38,-1454 1193.38,-1454 1193.38,-1460 1187.38,-1466 1181.38,-1466"/>
<text xml:space="preserve" text-anchor="middle" x="1092.38" y="-1449.65" font-family="DejaVu Sans" font-size="13.00" fill="#0b2545">A2 · Normalizer &amp; Context</text>
<text xml:space="preserve" text-anchor="middle" x="1092.38" y="-1433.15" font-family="DejaVu Sans" font-size="13.00" fill="#0b2545">OT + Indian Context Builder</text>
</g>
<!-- T4&#45;&gt;A2 -->
<g id="edge4" class="edge">
<title>T4&#45;&gt;A2</title>
<path fill="none" stroke="#0f766e" stroke-width="1.3" stroke-dasharray="5,2" d="M963.85,-1626.08C968.11,-1591.18 976.38,-1523.5 976.38,-1523.5 976.38,-1523.5 1020.22,-1494.4 1054,-1471.98"/>
<polygon fill="#0f766e" stroke="#0f766e" stroke-width="1.3" points="1055.14,-1474.58 1060.26,-1467.82 1052.04,-1469.91 1055.14,-1474.58"/>
<text xml:space="preserve" text-anchor="middle" x="1019.88" y="-1540.3" font-family="DejaVu Sans" font-size="11.00">asset metadata</text>
</g>
<!-- A1&#45;&gt;A2 -->
<g id="edge5" class="edge">
<title>A1&#45;&gt;A2</title>
<path fill="none" stroke="#0f766e" stroke-width="1.3" d="M1174.57,-1522.77C1159.04,-1508.36 1138.01,-1488.85 1121.11,-1473.16"/>
<polygon fill="#0f766e" stroke="#0f766e" stroke-width="1.3" points="1123.36,-1471.43 1115.59,-1468.04 1119.55,-1475.54 1123.36,-1471.43"/>
<text xml:space="preserve" text-anchor="middle" x="1203.85" y="-1491.05" font-family="DejaVu Sans" font-size="11.00">Sanitized &amp; Trusted</text>
</g>
<!-- A3 -->
<g id="node7" class="node">
<title>A3</title>
<path fill="#f2f4f7" stroke="#0f766e" stroke-width="1.6" d="M1080.45,-1366.16C1080.45,-1366.16 944.1,-1350.84 944.1,-1350.84 938.14,-1350.17 938.14,-1348.83 944.1,-1348.16 944.1,-1348.16 1080.45,-1332.84 1080.45,-1332.84 1086.41,-1332.17 1098.34,-1332.17 1104.3,-1332.84 1104.3,-1332.84 1240.65,-1348.16 1240.65,-1348.16 1246.61,-1348.83 1246.61,-1350.17 1240.65,-1350.84 1240.65,-1350.84 1104.3,-1366.16 1104.3,-1366.16 1098.34,-1366.83 1086.41,-1366.83 1080.45,-1366.16"/>
<text xml:space="preserve" text-anchor="middle" x="1092.38" y="-1345.4" font-family="DejaVu Sans" font-size="13.00" fill="#0b2545">A3 · Fingerprint Router</text>
</g>
<!-- A2&#45;&gt;A3 -->
<g id="edge6" class="edge">
<title>A2&#45;&gt;A3</title>
<path fill="none" stroke="#0f766e" stroke-width="1.3" d="M1092.38,-1424.57C1092.38,-1410.99 1092.38,-1392.85 1092.38,-1377.92"/>
<polygon fill="#0f766e" stroke="#0f766e" stroke-width="1.3" points="1095.18,-1378.16 1092.38,-1370.16 1089.58,-1378.16 1095.18,-1378.16"/>
<text xml:space="preserve" text-anchor="middle" x="1137" y="-1392.55" font-family="DejaVu Sans" font-size="11.00">Evidence Object</text>
</g>
<!-- REDIS -->
<g id="node8" class="node">
<title>REDIS</title>
<path fill="#e6f4f1" stroke="#0b2545" stroke-width="1.6" d="M1195.38,-1253.31C1195.38,-1257.28 1168.93,-1260.5 1136.38,-1260.5 1103.82,-1260.5 1077.38,-1257.28 1077.38,-1253.31 1077.38,-1253.31 1077.38,-1188.62 1077.38,-1188.62 1077.38,-1184.66 1103.82,-1181.44 1136.38,-1181.44 1168.93,-1181.44 1195.38,-1184.66 1195.38,-1188.62 1195.38,-1188.62 1195.38,-1253.31 1195.38,-1253.31"/>
<path fill="none" stroke="#0b2545" stroke-width="1.6" d="M1195.38,-1253.31C1195.38,-1249.35 1168.93,-1246.12 1136.38,-1246.12 1103.82,-1246.12 1077.38,-1249.35 1077.38,-1253.31"/>
<text xml:space="preserve" text-anchor="middle" x="1136.38" y="-1233.37" font-family="DejaVu Sans" font-size="13.00" fill="#0b2545">Redis</text>
<text xml:space="preserve" text-anchor="middle" x="1136.38" y="-1216.87" font-family="DejaVu Sans" font-size="13.00" fill="#0b2545">Decision Cache</text>
<text xml:space="preserve" text-anchor="middle" x="1136.38" y="-1200.37" font-family="DejaVu Sans" font-size="13.00" fill="#0b2545">&lt; 0.1 ms</text>
</g>
<!-- A3&#45;&gt;REDIS -->
<g id="edge7" class="edge">
<title>A3&#45;&gt;REDIS</title>
<path fill="none" stroke="#0f766e" stroke-width="1.3" d="M1098.31,-1331.44C1103.74,-1315.81 1112.06,-1291.9 1119.53,-1270.42"/>
<polygon fill="#0f766e" stroke="#0f766e" stroke-width="1.3" points="1122.15,-1271.4 1122.13,-1262.93 1116.86,-1269.56 1122.15,-1271.4"/>
<text xml:space="preserve" text-anchor="middle" x="1158.62" y="-1299.05" font-family="DejaVu Sans" font-size="11.00">Path 1: SHA&#45;256</text>
<text xml:space="preserve" text-anchor="middle" x="1158.62" y="-1285.55" font-family="DejaVu Sans" font-size="11.00">exact hit</text>
</g>
<!-- FAISSV -->
<g id="node9" class="node">
<title>FAISSV</title>
<path fill="#e6f4f1" stroke="#0b2545" stroke-width="1.6" d="M1048.62,-1253.31C1048.62,-1257.28 1022.52,-1260.5 990.38,-1260.5 958.23,-1260.5 932.12,-1257.28 932.12,-1253.31 932.12,-1253.31 932.12,-1188.62 932.12,-1188.62 932.12,-1184.66 958.23,-1181.44 990.38,-1181.44 1022.52,-1181.44 1048.62,-1184.66 1048.62,-1188.62 1048.62,-1188.62 1048.62,-1253.31 1048.62,-1253.31"/>
<path fill="none" stroke="#0b2545" stroke-width="1.6" d="M1048.62,-1253.31C1048.62,-1249.35 1022.52,-1246.12 990.38,-1246.12 958.23,-1246.12 932.12,-1249.35 932.12,-1253.31"/>
<text xml:space="preserve" text-anchor="middle" x="990.38" y="-1233.37" font-family="DejaVu Sans" font-size="13.00" fill="#0b2545">FAISS</text>
<text xml:space="preserve" text-anchor="middle" x="990.38" y="-1216.87" font-family="DejaVu Sans" font-size="13.00" fill="#0b2545">Vector Memory</text>
<text xml:space="preserve" text-anchor="middle" x="990.38" y="-1200.37" font-family="DejaVu Sans" font-size="13.00" fill="#0b2545">~16 ms</text>
</g>
<!-- A3&#45;&gt;FAISSV -->
<g id="edge8" class="edge">
<title>A3&#45;&gt;FAISSV</title>
<path fill="none" stroke="#0f766e" stroke-width="1.3" d="M1067.72,-1333.53C1049.6,-1322.53 1028.12,-1309.5 1028.12,-1309.5 1028.12,-1309.5 1019.92,-1290.48 1011.16,-1270.17"/>
<polygon fill="#0f766e" stroke="#0f766e" stroke-width="1.3" points="1013.78,-1269.17 1008.04,-1262.93 1008.64,-1271.39 1013.78,-1269.17"/>
<text xml:space="preserve" text-anchor="middle" x="1063.75" y="-1299.05" font-family="DejaVu Sans" font-size="11.00">Path 2: FAISS</text>
<text xml:space="preserve" text-anchor="middle" x="1063.75" y="-1285.55" font-family="DejaVu Sans" font-size="11.00">sim &gt;= 0.85</text>
</g>
<!-- A4 -->
<g id="node10" class="node">
<title>A4</title>
<path fill="#f2f4f7" stroke="#0f766e" stroke-width="1.6" d="M773,-1249.72C773,-1249.72 553.75,-1249.72 553.75,-1249.72 547.75,-1249.72 541.75,-1243.72 541.75,-1237.72 541.75,-1237.72 541.75,-1204.22 541.75,-1204.22 541.75,-1198.22 547.75,-1192.22 553.75,-1192.22 553.75,-1192.22 773,-1192.22 773,-1192.22 779,-1192.22 785,-1198.22 785,-1204.22 785,-1204.22 785,-1237.72 785,-1237.72 785,-1243.72 779,-1249.72 773,-1249.72"/>
<text xml:space="preserve" text-anchor="middle" x="663.38" y="-1233.37" font-family="DejaVu Sans" font-size="13.00" fill="#0b2545">A4 · Anomaly Detector</text>
<text xml:space="preserve" text-anchor="middle" x="663.38" y="-1216.87" font-family="DejaVu Sans" font-size="13.00" fill="#0b2545">Isolation Forest + Welford Z&#45;Score</text>
<text xml:space="preserve" text-anchor="middle" x="663.38" y="-1200.37" font-family="DejaVu Sans" font-size="13.00" fill="#0b2545">+ Cross&#45;Attention Fusion</text>
</g>
<!-- A3&#45;&gt;A4 -->
<g id="edge9" class="edge">
<title>A3&#45;&gt;A4</title>
<path fill="none" stroke="#0f766e" stroke-width="1.3" d="M1037.22,-1336.9C982.54,-1325.41 906.88,-1309.5 906.88,-1309.5 906.88,-1309.5 821.65,-1278.86 752.04,-1253.84"/>
<polygon fill="#0f766e" stroke="#0f766e" stroke-width="1.3" points="753.1,-1251.25 744.62,-1251.17 751.2,-1256.52 753.1,-1251.25"/>
<text xml:space="preserve" text-anchor="middle" x="958.62" y="-1299.05" font-family="DejaVu Sans" font-size="11.00">Path 3: cache miss</text>
<text xml:space="preserve" text-anchor="middle" x="958.62" y="-1285.55" font-family="DejaVu Sans" font-size="11.00">/ novel event</text>
</g>
<!-- A7 -->
<g id="node14" class="node">
<title>A7</title>
<path fill="#f2f4f7" stroke="#0f766e" stroke-width="1.6" d="M988.5,-763.38C988.5,-763.38 778.25,-763.38 778.25,-763.38 772.25,-763.38 766.25,-757.38 766.25,-751.38 766.25,-751.38 766.25,-717.88 766.25,-717.88 766.25,-711.88 772.25,-705.88 778.25,-705.88 778.25,-705.88 988.5,-705.88 988.5,-705.88 994.5,-705.88 1000.5,-711.88 1000.5,-717.88 1000.5,-717.88 1000.5,-751.38 1000.5,-751.38 1000.5,-757.38 994.5,-763.38 988.5,-763.38"/>
<text xml:space="preserve" text-anchor="middle" x="883.38" y="-747.02" font-family="DejaVu Sans" font-size="13.00" fill="#0b2545">A7 · SOAR &amp; Planner</text>
<text xml:space="preserve" text-anchor="middle" x="883.38" y="-730.52" font-family="DejaVu Sans" font-size="13.00" fill="#0b2545">Competing Bayesian Hypotheses</text>
<text xml:space="preserve" text-anchor="middle" x="883.38" y="-714.02" font-family="DejaVu Sans" font-size="13.00" fill="#0b2545">BFS Blast Radius</text>
</g>
<!-- REDIS&#45;&gt;A7 -->
<g id="edge15" class="edge">
<title>REDIS&#45;&gt;A7</title>
<path fill="none" stroke="#0f766e" stroke-width="1.3" d="M1097.72,-1181.6C1059.4,-1143.57 1006.38,-1090.94 1006.38,-1090.94 1006.38,-1090.94 1006.38,-1090.94 1006.38,-840.38 1006.38,-840.38 959.93,-800.82 924.12,-770.32"/>
<polygon fill="#0f766e" stroke="#0f766e" stroke-width="1.3" points="926.06,-768.3 918.16,-765.25 922.43,-772.57 926.06,-768.3"/>
</g>
<!-- FAISSV&#45;&gt;A7 -->
<g id="edge16" class="edge">
<title>FAISSV&#45;&gt;A7</title>
<path fill="none" stroke="#0f766e" stroke-width="1.3" d="M977.36,-1180.9C964.7,-1142.93 947.38,-1090.94 947.38,-1090.94 947.38,-1090.94 947.38,-1090.94 947.38,-840.38 947.38,-840.38 924.21,-802.46 905.75,-772.25"/>
<polygon fill="#0f766e" stroke="#0f766e" stroke-width="1.3" points="908.28,-771.02 901.72,-765.65 903.5,-773.94 908.28,-771.02"/>
</g>
<!-- A5 -->
<g id="node11" class="node">
<title>A5</title>
<path fill="#f2f4f7" stroke="#0f766e" stroke-width="1.6" d="M605.5,-1110.44C605.5,-1110.44 413.25,-1110.44 413.25,-1110.44 407.25,-1110.44 401.25,-1104.44 401.25,-1098.44 401.25,-1098.44 401.25,-1081.44 401.25,-1081.44 401.25,-1075.44 407.25,-1069.44 413.25,-1069.44 413.25,-1069.44 605.5,-1069.44 605.5,-1069.44 611.5,-1069.44 617.5,-1075.44 617.5,-1081.44 617.5,-1081.44 617.5,-1098.44 617.5,-1098.44 617.5,-1104.44 611.5,-1110.44 605.5,-1110.44"/>
<text xml:space="preserve" text-anchor="middle" x="509.38" y="-1094.09" font-family="DejaVu Sans" font-size="13.00" fill="#0b2545">A5 · GNN Correlator Ensemble</text>
<text xml:space="preserve" text-anchor="middle" x="509.38" y="-1077.59" font-family="DejaVu Sans" font-size="13.00" fill="#0b2545">GAT + GraphSAGE + TGN</text>
</g>
<!-- A4&#45;&gt;A5 -->
<g id="edge10" class="edge">
<title>A4&#45;&gt;A5</title>
<path fill="none" stroke="#0f766e" stroke-width="1.3" d="M629.58,-1191.65C603.15,-1169.51 566.67,-1138.95 540.85,-1117.31"/>
<polygon fill="#0f766e" stroke="#0f766e" stroke-width="1.3" points="542.98,-1115.44 535.05,-1112.45 539.38,-1119.73 542.98,-1115.44"/>
<text xml:space="preserve" text-anchor="middle" x="631.49" y="-1148.99" font-family="DejaVu Sans" font-size="11.00">anomaly score</text>
<text xml:space="preserve" text-anchor="middle" x="631.49" y="-1135.49" font-family="DejaVu Sans" font-size="11.00">+ embedding</text>
</g>
<!-- A10 -->
<g id="node12" class="node">
<title>A10</title>
<path fill="#f2f4f7" stroke="#0f766e" stroke-width="1.6" d="M416.75,-987.66C416.75,-987.66 298,-987.66 298,-987.66 292,-987.66 286,-981.66 286,-975.66 286,-975.66 286,-942.16 286,-942.16 286,-936.16 292,-930.16 298,-930.16 298,-930.16 416.75,-930.16 416.75,-930.16 422.75,-930.16 428.75,-936.16 428.75,-942.16 428.75,-942.16 428.75,-975.66 428.75,-975.66 428.75,-981.66 422.75,-987.66 416.75,-987.66"/>
<text xml:space="preserve" text-anchor="middle" x="357.38" y="-971.31" font-family="DejaVu Sans" font-size="13.00" fill="#0b2545">A10 · Active Hunt</text>
<text xml:space="preserve" text-anchor="middle" x="357.38" y="-954.81" font-family="DejaVu Sans" font-size="13.00" fill="#0b2545">VirusTotal / Shodan</text>
<text xml:space="preserve" text-anchor="middle" x="357.38" y="-938.31" font-family="DejaVu Sans" font-size="13.00" fill="#0b2545">Circuit Breaker</text>
</g>
<!-- A5&#45;&gt;A10 -->
<g id="edge12" class="edge">
<title>A5&#45;&gt;A10</title>
<path fill="none" stroke="#0f766e" stroke-width="1.3" stroke-dasharray="5,2" d="M458.23,-1068.67C431.64,-1058.14 404.62,-1047.44 404.62,-1047.44 404.62,-1047.44 390.17,-1020.65 377.25,-996.72"/>
<polygon fill="#0f766e" stroke="#0f766e" stroke-width="1.3" points="379.78,-995.52 373.52,-989.81 374.86,-998.18 379.78,-995.52"/>
<text xml:space="preserve" text-anchor="middle" x="436.5" y="-1036.99" font-family="DejaVu Sans" font-size="11.00">score &gt; 0.7</text>
<text xml:space="preserve" text-anchor="middle" x="436.5" y="-1023.49" font-family="DejaVu Sans" font-size="11.00">enrich</text>
</g>
<!-- A5&#45;&gt;A6 -->
<g id="edge11" class="edge">
<title>A5&#45;&gt;A6</title>
<path fill="none" stroke="#0f766e" stroke-width="1.3" d="M505.27,-1068.9C494.7,-1017.3 467.38,-883.88 467.38,-883.88 467.38,-883.88 462.24,-877.6 455.95,-869.93"/>
<polygon fill="#0f766e" stroke="#0f766e" stroke-width="1.3" points="458.46,-868.57 451.22,-864.16 454.13,-872.12 458.46,-868.57"/>
<text xml:space="preserve" text-anchor="middle" x="547.47" y="-955.21" font-family="DejaVu Sans" font-size="11.00">graph attention path</text>
</g>
<!-- NEO -->
<g id="node23" class="node">
<title>NEO</title>
<path fill="#e6f4f1" stroke="#0b2545" stroke-width="1.6" d="M839.12,-991.25C839.12,-995.22 792.17,-998.44 734.38,-998.44 676.58,-998.44 629.62,-995.22 629.62,-991.25 629.62,-991.25 629.62,-926.56 629.62,-926.56 629.62,-922.6 676.58,-919.38 734.38,-919.38 792.17,-919.38 839.12,-922.6 839.12,-926.56 839.12,-926.56 839.12,-991.25 839.12,-991.25"/>
<path fill="none" stroke="#0b2545" stroke-width="1.6" d="M839.12,-991.25C839.12,-987.28 792.17,-984.06 734.38,-984.06 676.58,-984.06 629.62,-987.28 629.62,-991.25"/>
<text xml:space="preserve" text-anchor="middle" x="734.38" y="-971.31" font-family="DejaVu Sans" font-size="13.00" fill="#0b2545">Neo4j</text>
<text xml:space="preserve" text-anchor="middle" x="734.38" y="-954.81" font-family="DejaVu Sans" font-size="13.00" fill="#0b2545">Knowledge Graph</text>
<text xml:space="preserve" text-anchor="middle" x="734.38" y="-938.31" font-family="DejaVu Sans" font-size="13.00" fill="#0b2545">5,026 nodes / 565,752 edges</text>
</g>
<!-- A5&#45;&gt;NEO -->
<g id="edge26" class="edge">
<title>A5&#45;&gt;NEO</title>
<path fill="none" stroke="#0f766e" stroke-width="1.3" stroke-dasharray="5,2" d="M544.53,-1068.78C574.98,-1051.31 620.08,-1025.45 658.69,-1003.31"/>
<polygon fill="#0f766e" stroke="#0f766e" stroke-width="1.3" points="660.07,-1005.75 665.62,-999.34 657.28,-1000.89 660.07,-1005.75"/>
</g>
<!-- A10&#45;&gt;A6 -->
<g id="edge13" class="edge">
<title>A10&#45;&gt;A6</title>
<path fill="none" stroke="#0f766e" stroke-width="1.3" stroke-dasharray="5,2" d="M362.46,-929.5C366.2,-908.62 370.62,-883.88 370.62,-883.88 370.62,-883.88 381.72,-876.54 394.58,-868.03"/>
<polygon fill="#0f766e" stroke="#0f766e" stroke-width="1.3" points="395.97,-870.47 401.09,-863.72 392.88,-865.8 395.97,-870.47"/>
<text xml:space="preserve" text-anchor="middle" x="417.5" y="-886.92" font-family="DejaVu Sans" font-size="11.00">confidence boost</text>
</g>
<!-- A6&#45;&gt;A7 -->
<g id="edge14" class="edge">
<title>A6&#45;&gt;A7</title>
<path fill="none" stroke="#0f766e" stroke-width="1.3" d="M520.41,-820.12C587.3,-804.55 680.68,-782.81 755.98,-765.28"/>
<polygon fill="#0f766e" stroke="#0f766e" stroke-width="1.3" points="756.46,-768.04 763.62,-763.5 755.19,-762.59 756.46,-768.04"/>
<text xml:space="preserve" text-anchor="middle" x="712.75" y="-788.42" font-family="DejaVu Sans" font-size="11.00">TTPs + threat actor</text>
</g>
<!-- A8 -->
<g id="node15" class="node">
<title>A8</title>
<path fill="#f2f4f7" stroke="#0f766e" stroke-width="1.6" d="M969.75,-660.88C969.75,-660.88 797,-660.88 797,-660.88 791,-660.88 785,-654.88 785,-648.88 785,-648.88 785,-631.88 785,-631.88 785,-625.88 791,-619.88 797,-619.88 797,-619.88 969.75,-619.88 969.75,-619.88 975.75,-619.88 981.75,-625.88 981.75,-631.88 981.75,-631.88 981.75,-648.88 981.75,-648.88 981.75,-654.88 975.75,-660.88 969.75,-660.88"/>
<text xml:space="preserve" text-anchor="middle" x="883.38" y="-644.52" font-family="DejaVu Sans" font-size="13.00" fill="#0b2545">A8 · Critic / Skeptic</text>
<text xml:space="preserve" text-anchor="middle" x="883.38" y="-628.02" font-family="DejaVu Sans" font-size="13.00" fill="#0b2545">Adversarial Challenge Loop</text>
</g>
<!-- A7&#45;&gt;A8 -->
<g id="edge17" class="edge">
<title>A7&#45;&gt;A8</title>
<path fill="none" stroke="#0f766e" stroke-width="1.3" d="M883.38,-705.19C883.38,-694.52 883.38,-682.36 883.38,-671.54"/>
<polygon fill="#0f766e" stroke="#0f766e" stroke-width="1.3" points="886.18,-671.63 883.38,-663.63 880.58,-671.63 886.18,-671.63"/>
</g>
<!-- A9 -->
<g id="node16" class="node">
<title>A9</title>
<path fill="#f2f4f7" stroke="#0f766e" stroke-width="1.6" d="M957.75,-562.38C957.75,-562.38 809,-562.38 809,-562.38 803,-562.38 797,-556.38 797,-550.38 797,-550.38 797,-533.38 797,-533.38 797,-527.38 803,-521.38 809,-521.38 809,-521.38 957.75,-521.38 957.75,-521.38 963.75,-521.38 969.75,-527.38 969.75,-533.38 969.75,-533.38 969.75,-550.38 969.75,-550.38 969.75,-556.38 963.75,-562.38 957.75,-562.38"/>
<text xml:space="preserve" text-anchor="middle" x="883.38" y="-546.02" font-family="DejaVu Sans" font-size="13.00" fill="#0b2545">A9 · Quarantine Verifier</text>
<text xml:space="preserve" text-anchor="middle" x="883.38" y="-529.52" font-family="DejaVu Sans" font-size="13.00" fill="#0b2545">Dual&#45;Agent Sandbox</text>
</g>
<!-- A8&#45;&gt;A9 -->
<g id="edge18" class="edge">
<title>A8&#45;&gt;A9</title>
<path fill="none" stroke="#0f766e" stroke-width="1.3" d="M883.38,-619.38C883.38,-605.92 883.38,-587.94 883.38,-572.79"/>
<polygon fill="#0f766e" stroke="#0f766e" stroke-width="1.3" points="886.18,-572.81 883.38,-564.81 880.58,-572.81 886.18,-572.81"/>
<text xml:space="preserve" text-anchor="middle" x="940.75" y="-587.42" font-family="DejaVu Sans" font-size="11.00">validated hypothesis</text>
</g>
<!-- DEC -->
<g id="node17" class="node">
<title>DEC</title>
<path fill="#fff4f4" stroke="#9a1b1b" stroke-width="1.6" d="M871.48,-462.33C871.48,-462.33 756.79,-447.42 756.79,-447.42 750.84,-446.65 750.84,-445.1 756.79,-444.33 756.79,-444.33 871.48,-429.42 871.48,-429.42 877.43,-428.65 889.32,-428.65 895.27,-429.42 895.27,-429.42 1009.96,-444.33 1009.96,-444.33 1015.91,-445.1 1015.91,-446.65 1009.96,-447.42 1009.96,-447.42 895.27,-462.33 895.27,-462.33 889.32,-463.1 877.43,-463.1 871.48,-462.33"/>
<text xml:space="preserve" text-anchor="middle" x="883.38" y="-441.77" font-family="DejaVu Sans" font-size="13.00" fill="#9a1b1b">A7 Decision Engine</text>
</g>
<!-- A9&#45;&gt;DEC -->
<g id="edge19" class="edge">
<title>A9&#45;&gt;DEC</title>
<path fill="none" stroke="#0f766e" stroke-width="1.3" d="M883.38,-520.94C883.38,-507.37 883.38,-489.22 883.38,-474.29"/>
<polygon fill="#0f766e" stroke="#0f766e" stroke-width="1.3" points="886.18,-474.53 883.38,-466.53 880.58,-474.53 886.18,-474.53"/>
<text xml:space="preserve" text-anchor="middle" x="933.62" y="-488.93" font-family="DejaVu Sans" font-size="11.00">risk + blast radius</text>
</g>
<!-- AUTO -->
<g id="node18" class="node">
<title>AUTO</title>
<path fill="#fff4f4" stroke="#9a1b1b" stroke-width="1.6" d="M984.12,-348.62C984.12,-348.62 882.62,-348.62 882.62,-348.62 876.62,-348.62 870.62,-342.62 870.62,-336.62 870.62,-336.62 870.62,-319.62 870.62,-319.62 870.62,-313.62 876.62,-307.62 882.62,-307.62 882.62,-307.62 984.12,-307.62 984.12,-307.62 990.12,-307.62 996.12,-313.62 996.12,-319.62 996.12,-319.62 996.12,-336.62 996.12,-336.62 996.12,-342.62 990.12,-348.62 984.12,-348.62"/>
<text xml:space="preserve" text-anchor="middle" x="933.38" y="-332.27" font-family="DejaVu Sans" font-size="13.00" fill="#9a1b1b">AUTO_RESPOND</text>
<text xml:space="preserve" text-anchor="middle" x="933.38" y="-315.77" font-family="DejaVu Sans" font-size="13.00" fill="#9a1b1b">Direct Execution</text>
</g>
<!-- DEC&#45;&gt;AUTO -->
<g id="edge20" class="edge">
<title>DEC&#45;&gt;AUTO</title>
<path fill="none" stroke="#0f766e" stroke-width="1.3" d="M890.54,-428.29C898.43,-410.02 911.27,-380.3 920.84,-358.15"/>
<polygon fill="#0f766e" stroke="#0f766e" stroke-width="1.3" points="923.33,-359.44 923.93,-350.98 918.19,-357.22 923.33,-359.44"/>
<text xml:space="preserve" text-anchor="middle" x="966.87" y="-395.43" font-family="DejaVu Sans" font-size="11.00">Blast Radius &lt;= 0.3</text>
<text xml:space="preserve" text-anchor="middle" x="966.87" y="-381.93" font-family="DejaVu Sans" font-size="11.00">(low risk)</text>
</g>
<!-- HGATE -->
<g id="node19" class="node">
<title>HGATE</title>
<path fill="#fff4f4" stroke="#9a1b1b" stroke-width="1.6" d="M778.5,-356.88C778.5,-356.88 628.25,-356.88 628.25,-356.88 622.25,-356.88 616.25,-350.88 616.25,-344.88 616.25,-344.88 616.25,-311.38 616.25,-311.38 616.25,-305.38 622.25,-299.38 628.25,-299.38 628.25,-299.38 778.5,-299.38 778.5,-299.38 784.5,-299.38 790.5,-305.38 790.5,-311.38 790.5,-311.38 790.5,-344.88 790.5,-344.88 790.5,-350.88 784.5,-356.88 778.5,-356.88"/>
<text xml:space="preserve" text-anchor="middle" x="703.38" y="-340.52" font-family="DejaVu Sans" font-size="13.00" fill="#9a1b1b">HUMAN_GATE</text>
<text xml:space="preserve" text-anchor="middle" x="703.38" y="-324.02" font-family="DejaVu Sans" font-size="13.00" fill="#9a1b1b">Analyst Consensus Vote</text>
<text xml:space="preserve" text-anchor="middle" x="703.38" y="-307.52" font-family="DejaVu Sans" font-size="13.00" fill="#9a1b1b">(&gt;= 0.70 required)</text>
</g>
<!-- DEC&#45;&gt;HGATE -->
<g id="edge21" class="edge">
<title>DEC&#45;&gt;HGATE</title>
<path fill="none" stroke="#0f766e" stroke-width="1.3" d="M851.55,-431.23C825.31,-419.99 792.38,-405.88 792.38,-405.88 792.38,-405.88 767.11,-384.09 743.51,-363.73"/>
<polygon fill="#0f766e" stroke="#0f766e" stroke-width="1.3" points="745.64,-361.87 737.75,-358.77 741.98,-366.12 745.64,-361.87"/>
<text xml:space="preserve" text-anchor="middle" x="843.38" y="-395.43" font-family="DejaVu Sans" font-size="11.00">Blast Radius &gt; 0.3</text>
<text xml:space="preserve" text-anchor="middle" x="843.38" y="-381.93" font-family="DejaVu Sans" font-size="11.00">OR safety&#45;critical</text>
</g>
<!-- PLAY -->
<g id="node20" class="node">
<title>PLAY</title>
<path fill="#ffffff" stroke="#0b2545" stroke-width="1.6" d="M902.25,-254.38C902.25,-254.38 810.5,-254.38 810.5,-254.38 804.5,-254.38 798.5,-248.38 798.5,-242.38 798.5,-242.38 798.5,-225.38 798.5,-225.38 798.5,-219.38 804.5,-213.38 810.5,-213.38 810.5,-213.38 902.25,-213.38 902.25,-213.38 908.25,-213.38 914.25,-219.38 914.25,-225.38 914.25,-225.38 914.25,-242.38 914.25,-242.38 914.25,-248.38 908.25,-254.38 902.25,-254.38"/>
<text xml:space="preserve" text-anchor="middle" x="856.38" y="-238.03" font-family="DejaVu Sans" font-size="13.00" fill="#0b2545">Isolate Asset /</text>
<text xml:space="preserve" text-anchor="middle" x="856.38" y="-221.53" font-family="DejaVu Sans" font-size="13.00" fill="#0b2545">SOAR Playbook</text>
</g>
<!-- AUTO&#45;&gt;PLAY -->
<g id="edge23" class="edge">
<title>AUTO&#45;&gt;PLAY</title>
<path fill="none" stroke="#0f766e" stroke-width="1.3" d="M916.67,-307.11C905.84,-294.14 891.6,-277.07 879.67,-262.78"/>
<polygon fill="#0f766e" stroke="#0f766e" stroke-width="1.3" points="881.85,-261.03 874.58,-256.68 877.55,-264.62 881.85,-261.03"/>
</g>
<!-- HGATE&#45;&gt;AUTO -->
<g id="edge22" class="edge">
<title>HGATE&#45;&gt;AUTO</title>
<path fill="none" stroke="#0f766e" stroke-width="1.3" d="M790.98,-328.12C813.77,-328.12 838.08,-328.12 860.05,-328.12"/>
<polygon fill="#0f766e" stroke="#0f766e" stroke-width="1.3" points="860,-330.93 868,-328.13 860,-325.33 860,-330.93"/>
<text xml:space="preserve" text-anchor="middle" x="830.56" y="-334.18" font-family="DejaVu Sans" font-size="11.00">approved</text>
</g>
<!-- A12 -->
<g id="node21" class="node">
<title>A12</title>
<path fill="#f2f4f7" stroke="#0f766e" stroke-width="1.6" d="M925.88,-142.38C925.88,-142.38 786.88,-142.38 786.88,-142.38 780.88,-142.38 774.88,-136.38 774.88,-130.38 774.88,-130.38 774.88,-113.38 774.88,-113.38 774.88,-107.38 780.88,-101.38 786.88,-101.38 786.88,-101.38 925.88,-101.38 925.88,-101.38 931.88,-101.38 937.88,-107.38 937.88,-113.38 937.88,-113.38 937.88,-130.38 937.88,-130.38 937.88,-136.38 931.88,-142.38 925.88,-142.38"/>
<text xml:space="preserve" text-anchor="middle" x="856.38" y="-126.03" font-family="DejaVu Sans" font-size="13.00" fill="#0b2545">A12 · Cryptographic</text>
<text xml:space="preserve" text-anchor="middle" x="856.38" y="-109.53" font-family="DejaVu Sans" font-size="13.00" fill="#0b2545">Audit Chain (SHA&#45;256)</text>
</g>
<!-- PLAY&#45;&gt;A12 -->
<g id="edge24" class="edge">
<title>PLAY&#45;&gt;A12</title>
<path fill="none" stroke="#0f766e" stroke-width="1.3" d="M856.38,-212.7C856.38,-195.95 856.38,-171.89 856.38,-152.88"/>
<polygon fill="#0f766e" stroke="#0f766e" stroke-width="1.3" points="859.18,-152.89 856.38,-144.89 853.58,-152.89 859.18,-152.89"/>
</g>
<!-- A13 -->
<g id="node22" class="node">
<title>A13</title>
<path fill="#f2f4f7" stroke="#0f766e" stroke-width="1.6" d="M563.12,-142.38C563.12,-142.38 461.62,-142.38 461.62,-142.38 455.62,-142.38 449.62,-136.38 449.62,-130.38 449.62,-130.38 449.62,-113.38 449.62,-113.38 449.62,-107.38 455.62,-101.38 461.62,-101.38 461.62,-101.38 563.12,-101.38 563.12,-101.38 569.12,-101.38 575.12,-107.38 575.12,-113.38 575.12,-113.38 575.12,-130.38 575.12,-130.38 575.12,-136.38 569.12,-142.38 563.12,-142.38"/>
<text xml:space="preserve" text-anchor="middle" x="512.38" y="-126.03" font-family="DejaVu Sans" font-size="13.00" fill="#0b2545">A13 · Federation</text>
<text xml:space="preserve" text-anchor="middle" x="512.38" y="-109.53" font-family="DejaVu Sans" font-size="13.00" fill="#0b2545">STIX 2.1 Sharing</text>
</g>
<!-- PLAY&#45;&gt;A13 -->
<g id="edge25" class="edge">
<title>PLAY&#45;&gt;A13</title>
<path fill="none" stroke="#0f766e" stroke-width="1.3" d="M798.02,-214.21C739.19,-195.4 648.25,-166.32 584.84,-146.05"/>
<polygon fill="#0f766e" stroke="#0f766e" stroke-width="1.3" points="586.04,-143.49 577.56,-143.72 584.33,-148.82 586.04,-143.49"/>
<text xml:space="preserve" text-anchor="middle" x="765.8" y="-180.93" font-family="DejaVu Sans" font-size="11.00">confirmed</text>
<text xml:space="preserve" text-anchor="middle" x="765.8" y="-167.43" font-family="DejaVu Sans" font-size="11.00">malicious IOCs</text>
</g>
<!-- PG -->
<g id="node24" class="node">
<title>PG</title>
<path fill="#e6f4f1" stroke="#0b2545" stroke-width="1.6" d="M919.12,-51.25C919.12,-54.08 891,-56.38 856.38,-56.38 821.75,-56.38 793.62,-54.08 793.62,-51.25 793.62,-51.25 793.62,-5.12 793.62,-5.12 793.62,-2.3 821.75,0 856.38,0 891,0 919.12,-2.3 919.12,-5.12 919.12,-5.12 919.12,-51.25 919.12,-51.25"/>
<path fill="none" stroke="#0b2545" stroke-width="1.6" d="M919.12,-51.25C919.12,-48.42 891,-46.12 856.38,-46.12 821.75,-46.12 793.62,-48.42 793.62,-51.25"/>
<text xml:space="preserve" text-anchor="middle" x="856.38" y="-32.34" font-family="DejaVu Sans" font-size="13.00" fill="#0b2545">PostgreSQL</text>
<text xml:space="preserve" text-anchor="middle" x="856.38" y="-15.84" font-family="DejaVu Sans" font-size="13.00" fill="#0b2545">Structured Store</text>
</g>
<!-- A12&#45;&gt;PG -->
<g id="edge27" class="edge">
<title>A12&#45;&gt;PG</title>
<path fill="none" stroke="#0f766e" stroke-width="1.3" stroke-dasharray="5,2" d="M856.38,-100.98C856.38,-90.94 856.38,-78.42 856.38,-66.67"/>
<polygon fill="#0f766e" stroke="#0f766e" stroke-width="1.3" points="859.18,-67.01 856.38,-59.01 853.58,-67.01 859.18,-67.01"/>
</g>
<!-- A11 -->
<g id="node25" class="node">
<title>A11</title>
<path fill="#0b2545" stroke="#0f766e" stroke-width="1.6" d="M749.12,-1665.62C749.12,-1665.62 563.62,-1665.62 563.62,-1665.62 557.62,-1665.62 551.62,-1659.62 551.62,-1653.62 551.62,-1653.62 551.62,-1641.12 551.62,-1641.12 551.62,-1635.12 557.62,-1629.12 563.62,-1629.12 563.62,-1629.12 749.12,-1629.12 749.12,-1629.12 755.12,-1629.12 761.12,-1635.12 761.12,-1641.12 761.12,-1641.12 761.12,-1653.62 761.12,-1653.62 761.12,-1659.62 755.12,-1665.62 749.12,-1665.62"/>
<text xml:space="preserve" text-anchor="middle" x="656.38" y="-1650.22" font-family="DejaVu Sans" font-size="12.00" fill="white">A11 · Behavioral Watchdog</text>
<text xml:space="preserve" text-anchor="middle" x="656.38" y="-1635.97" font-family="DejaVu Sans" font-size="12.00" fill="white">SD&#45;6 Schema + Rate Monitoring</text>
</g>
<!-- A11&#45;&gt;A1 -->
<g id="edge28" class="edge">
<title>A11&#45;&gt;A1</title>
<path fill="none" stroke="#0b2545" stroke-width="1.3" stroke-dasharray="1,5" d="M754.94,-1628.38C826.34,-1615.34 910.38,-1600 910.38,-1600 910.38,-1600 1001.95,-1582.39 1081.47,-1567.1"/>
<polygon fill="#0b2545" stroke="#0b2545" stroke-width="1.3" points="1081.84,-1569.88 1089.17,-1565.62 1080.78,-1564.38 1081.84,-1569.88"/>
<text xml:space="preserve" text-anchor="middle" x="1010.62" y="-1589.55" font-family="DejaVu Sans" font-size="11.00">SD&#45;6 watch</text>
</g>
<!-- A11&#45;&gt;A4 -->
<g id="edge29" class="edge">
<title>A11&#45;&gt;A4</title>
<path fill="none" stroke="#0b2545" stroke-width="1.3" stroke-dasharray="1,5" d="M656.38,-1628.72C656.38,-1599.67 656.38,-1545 656.38,-1545 656.38,-1545 656.38,-1545 656.38,-1348.5 656.38,-1348.5 659.21,-1297.24 661.27,-1259.97"/>
<polygon fill="#0b2545" stroke="#0b2545" stroke-width="1.3" points="664.05,-1260.47 661.7,-1252.33 658.46,-1260.16 664.05,-1260.47"/>
</g>
<!-- A11&#45;&gt;A5 -->
<g id="edge30" class="edge">
<title>A11&#45;&gt;A5</title>
<path fill="none" stroke="#0b2545" stroke-width="1.3" stroke-dasharray="1,5" d="M628.31,-1628.48C582.67,-1599.38 497.38,-1545 497.38,-1545 497.38,-1545 497.38,-1545 497.38,-1219.97 497.38,-1219.97 503.06,-1158.81 506.61,-1120.7"/>
<polygon fill="#0b2545" stroke="#0b2545" stroke-width="1.3" points="509.36,-1121.28 507.32,-1113.06 503.79,-1120.76 509.36,-1121.28"/>
</g>
<!-- A11&#45;&gt;A7 -->
<g id="edge31" class="edge">
<title>A11&#45;&gt;A7</title>
<path fill="none" stroke="#0b2545" stroke-width="1.3" stroke-dasharray="1,5" d="M666.65,-1628.72C683.56,-1599.67 715.38,-1545 715.38,-1545 715.38,-1545 715.38,-1545 715.38,-1348.5 715.38,-1348.5 799.38,-1260.5 799.38,-1260.5 799.38,-1260.5 853.38,-998.44 853.38,-998.44 853.38,-998.44 870.71,-846.58 879.03,-773.73"/>
<polygon fill="#0b2545" stroke="#0b2545" stroke-width="1.3" points="881.79,-774.22 879.91,-765.96 876.22,-773.59 881.79,-774.22"/>
</g>
<!-- A11&#45;&gt;AUTO -->
<g id="edge32" class="edge">
<title>A11&#45;&gt;AUTO</title>
<path fill="none" stroke="#0b2545" stroke-width="1.3" stroke-dasharray="1,5" d="M697.58,-1628.37C764.25,-1599.24 888.38,-1545 888.38,-1545 888.38,-1545 888.38,-1545 888.38,-1144.94 888.38,-1144.94 1065.38,-891.62 1065.38,-891.62 1065.38,-891.62 1065.38,-891.62 1065.38,-444.88 1065.38,-444.88 1029.38,-378.88 1029.38,-378.88 1029.38,-378.88 1005.28,-366.39 981.23,-353.93"/>
<polygon fill="#0b2545" stroke="#0b2545" stroke-width="1.3" points="982.56,-351.46 974.17,-350.27 979.98,-356.43 982.56,-351.46"/>
</g>
<!-- KILL -->
<g id="node26" class="node">
<title>KILL</title>
<path fill="#9a1b1b" stroke="white" stroke-width="1.6" d="M437.5,-1672.75C437.5,-1672.75 335.25,-1672.75 335.25,-1672.75 329.25,-1672.75 323.25,-1666.75 323.25,-1660.75 323.25,-1660.75 323.25,-1634 323.25,-1634 323.25,-1628 329.25,-1622 335.25,-1622 335.25,-1622 437.5,-1622 437.5,-1622 443.5,-1622 449.5,-1628 449.5,-1634 449.5,-1634 449.5,-1660.75 449.5,-1660.75 449.5,-1666.75 443.5,-1672.75 437.5,-1672.75"/>
<text xml:space="preserve" text-anchor="middle" x="386.38" y="-1657.35" font-family="DejaVu Sans" font-size="12.00" fill="white">SD&#45;8 Kill Switch</text>
<text xml:space="preserve" text-anchor="middle" x="386.38" y="-1643.1" font-family="DejaVu Sans" font-size="12.00" fill="white">Emergency Freeze</text>
<text xml:space="preserve" text-anchor="middle" x="386.38" y="-1628.85" font-family="DejaVu Sans" font-size="12.00" fill="white">(CISO / Sysadmin)</text>
</g>
<!-- KILL&#45;&gt;A10 -->
<g id="edge34" class="edge">
<title>KILL&#45;&gt;A10</title>
<path fill="none" stroke="#9a1b1b" stroke-width="1.3" stroke-dasharray="1,5" d="M386.38,-1621.32C386.38,-1591.3 386.38,-1545 386.38,-1545 386.38,-1545 386.38,-1545 386.38,-1295 386.38,-1295 368.28,-1085.86 360.67,-998.03"/>
<polygon fill="#9a1b1b" stroke="#9a1b1b" stroke-width="1.3" points="363.47,-997.88 359.99,-990.15 357.89,-998.36 363.47,-997.88"/>
</g>
<!-- KILL&#45;&gt;A7 -->
<g id="edge33" class="edge">
<title>KILL&#45;&gt;A7</title>
<path fill="none" stroke="#9a1b1b" stroke-width="1.3" stroke-dasharray="1,5" d="M350.78,-1621.32C308.14,-1591.3 242.38,-1545 242.38,-1545 242.38,-1545 242.38,-1545 242.38,-840.38 242.38,-840.38 323.38,-820.88 323.38,-820.88 323.38,-820.88 590.63,-780.19 755.89,-755.03"/>
<polygon fill="#9a1b1b" stroke="#9a1b1b" stroke-width="1.3" points="756.21,-757.82 763.69,-753.84 755.36,-752.28 756.21,-757.82"/>
<text xml:space="preserve" text-anchor="middle" x="292.25" y="-1217.27" font-family="DejaVu Sans" font-size="11.00">freezes autonomy</text>
</g>
<!-- KILL&#45;&gt;A13 -->
<g id="edge35" class="edge">
<title>KILL&#45;&gt;A13</title>
<path fill="none" stroke="#9a1b1b" stroke-width="1.3" stroke-dasharray="1,5" d="M332.73,-1621.32C268.47,-1591.3 169.38,-1545 169.38,-1545 169.38,-1545 169.38,-1545 169.38,-232.88 169.38,-232.88 339.65,-178.27 440.25,-146"/>
<polygon fill="#9a1b1b" stroke="#9a1b1b" stroke-width="1.3" points="440.83,-148.76 447.59,-143.65 439.12,-143.43 440.83,-148.76"/>
</g>
</g>
</svg>
